<svg width="75" height="109" viewBox="0 0 75 109" fill="none" xmlns="http://www.w3.org/2000/svg">
<path d="M74.6875 109H2.9834V96.7686L38.5059 58.0234C43.6328 52.3105 47.2705 47.5498 49.4189 43.7412C51.6162 39.8838 52.7148 36.0264 52.7148 32.1689C52.7148 27.0908 51.2744 22.9893 48.3936 19.8643C45.5615 16.7393 41.7285 15.1768 36.8945 15.1768C31.1328 15.1768 26.665 16.9346 23.4912 20.4502C20.3174 23.9658 18.7305 28.7754 18.7305 34.8789H0.932617C0.932617 28.3848 2.39746 22.5498 5.32715 17.374C8.30566 12.1494 12.5293 8.09668 17.998 5.21582C23.5156 2.33496 29.8633 0.894531 37.041 0.894531C47.3926 0.894531 55.5469 3.50684 61.5039 8.73145C67.5098 13.9072 70.5127 21.085 70.5127 30.2646C70.5127 35.5869 68.999 41.1777 65.9717 47.0371C62.9932 52.8477 58.0859 59.4639 51.25 66.8857L25.1758 94.791H74.6875V109Z" fill="#5052A2"/>
</svg>
